<svg width="140" height="21" viewBox="0 0 140 21" fill="none" xmlns="http://www.w3.org/2000/svg">
<g clip-path="url(#clip0_19_10)">
<path d="M11.9512 1.16663V2.33329H11.0976V3.49996H10.2439V4.66663H9.39025V6.99996H11.0976V8.16663H10.2439V9.33329H9.39025V10.5H8.53659V11.6666H7.68293V12.8333H6.82927V14H5.97561V15.1666H5.12195V16.3333H4.26829V17.5H3.41464V19.8333V21H4.26829V19.8333H5.12195V18.6666H5.97561V17.5H6.82927V16.3333H7.68293V15.1666H8.53659V14H9.39025V12.8333H10.2439V11.6666H11.0976V10.5H11.9512V9.33329H12.8049V8.16663H13.6585V6.99996H11.9512V4.66663H12.8049V3.49996H13.6585V2.33329H14.5122V1.16663H11.9512ZM19.6341 1.16663V15.1666H21.3415V5.83329H31.5854V1.16663H19.6341ZM43.5366 1.16663V3.49996H35V8.16663H36.7073V5.83329H43.5366V10.5H33.2927V19.8333H36.7073V12.8333H43.5366V19.8333H46.9512V1.16663H43.5366ZM58.9024 1.16663V3.49996H48.6585V19.8333H52.0732V5.83329H53.7805V19.8333H57.1951V5.83329H58.9024V19.8333H62.3171V1.16663H58.9024ZM65.7317 1.16663V15.1666H64.0244V19.8333H77.6829V15.1666H67.439V12.8333H77.6829V8.16663H67.439V5.83329H77.6829V1.16663H65.7317ZM93.9024 1.16663V17.5H81.9512V19.8333H95.6098V1.16663H93.9024ZM109.268 1.16663V17.5H97.3171V19.8333H110.976V1.16663H109.268ZM117.805 1.16663V10.5H119.512V1.16663H117.805ZM138.293 1.16663V8.16663H134.878V17.5H129.756V19.8333H136.585V10.5H140V1.16663H138.293ZM29.8781 8.16663V17.5H17.9268V19.8333H31.5854V8.16663H29.8781ZM126.341 8.16663V10.5H129.756V8.16663H126.341ZM0.853661 10.5V12.8333H5.97561V10.5H0.853661ZM23.0488 10.5V12.8333H28.1707V10.5H23.0488ZM122.927 10.5V17.5H112.683V19.8333H124.634V10.5H122.927Z" fill="black"/>
<path d="M3.41463 0V2.33333H2.56098V4.66667H1.70732V7H0.853659V9.33333H0V11.6667H5.12195V14H4.26829V16.3333H3.41463V18.6667H4.26829V17.5H5.12195V16.3333H5.97561V15.1667H6.82927V14H7.68293V12.8333H8.53659V11.6667H9.39024V10.5H10.2439V9.33333H11.0976V8.16667H11.9512V7H12.8049V5.83333H10.2439V4.66667H11.0976V3.5H11.9512V2.33333H12.8049V1.16667H13.6585V0H3.41463ZM3.41463 18.6667H2.56098V19.8333H3.41463V18.6667ZM17.0732 0V18.6667H30.7317V7H22.1951V11.6667H27.3171V14H20.4878V4.66667H30.7317V0H17.0732ZM32.439 0V18.6667H35.8537V11.6667H42.6829V18.6667H46.0976V0H32.439ZM47.8049 0V18.6667H51.2195V4.66667H52.9268V18.6667H56.3415V4.66667H58.0488V18.6667H61.4634V0H47.8049ZM63.1707 0V18.6667H76.8293V14H66.5854V11.6667H76.8293V7H66.5854V4.66667H76.8293V0H63.1707ZM87.9268 0V9.33333H81.0976V18.6667H94.7561V0H87.9268ZM96.4634 0V18.6667H110.122V0H96.4634ZM111.829 0V18.6667H123.78V9.33333H118.659V0H111.829ZM125.488 0V9.33333H128.902V18.6667H135.732V9.33333H139.146V0H125.488ZM35.8537 4.66667H42.6829V7H35.8537V4.66667Z" fill="white"/>
<path d="M4.26829 2.33337V4.66671H3.41463V7.00004H4.26829V8.16671H5.12195V7.00004H5.97561V8.16671H6.82927V7.00004H7.68293V5.83337H8.53658V4.66671H9.39024V3.50004H10.2439V2.33337H4.26829ZM6.82927 8.16671V9.33337H7.68293V8.16671H6.82927ZM5.97561 8.16671H5.12195V9.33337H5.97561V8.16671ZM4.26829 8.16671H3.41463V9.33337H4.26829V8.16671ZM3.41463 8.16671V7.00004H2.56097V8.16671H3.41463ZM89.6341 2.33337V11.6667H82.8049V16.3334H83.6585V12.8334H90.4878V10.5H91.3415V9.33337H90.4878V8.16671H91.3415V9.33337H92.1951V8.16671H93.0488V2.33337H89.6341ZM92.1951 9.33337V10.5H93.0488V9.33337H92.1951ZM98.1707 2.33337V16.3334H99.0244V10.5H99.8781V9.33337H99.0244V8.16671H99.8781V9.33337H100.732V8.16671H101.585V7.00004H105V11.6667H102.439V12.8334H105.854V10.5H106.707V9.33337H105.854V8.16671H106.707V9.33337H107.561V8.16671H108.415V2.33337H98.1707ZM107.561 9.33337V10.5H108.415V9.33337H107.561ZM100.732 9.33337V10.5H101.585V9.33337H100.732ZM113.537 2.33337V16.3334H114.39V10.5H115.244V9.33337H114.39V8.16671H115.244V9.33337H116.098V8.16671H116.951V2.33337H113.537ZM116.098 9.33337V10.5H116.951V9.33337H116.098ZM127.195 2.33337V7.00004H130.61V16.3334H131.463V10.5H132.317V9.33337H131.463V8.16671H132.317V9.33337H133.171V8.16671H134.024V7.00004H137.439V2.33337H127.195ZM133.171 9.33337V10.5H134.024V9.33337H133.171ZM8.53658 8.16671V9.33337H9.39024V8.16671H8.53658ZM117.805 11.6667V12.8334H122.073V11.6667H117.805Z" fill="#2F7F6F"/>
<path d="M3.41463 7V8.16667H4.26829V7H3.41463ZM4.26829 8.16667V9.33333H5.12195V8.16667H4.26829ZM5.12195 8.16667H5.97561V7H5.12195V8.16667ZM5.97561 8.16667V9.33333H6.82927V8.16667H5.97561ZM6.82927 8.16667H7.68293V7H6.82927V8.16667ZM7.68293 8.16667V9.33333H6.82927V11.6667H7.68293V10.5H8.53658V8.16667H7.68293ZM3.41463 8.16667H2.56097V9.33333H3.41463V8.16667ZM90.4878 8.16667V9.33333H91.3415V8.16667H90.4878ZM91.3415 9.33333V10.5H90.4878V12.8333H83.6585V16.3333H93.0488V10.5H92.1951V9.33333H91.3415ZM92.1951 9.33333H93.0488V8.16667H92.1951V9.33333ZM99.0244 8.16667V9.33333H99.8781V8.16667H99.0244ZM99.8781 9.33333V10.5H99.0244V16.3333H108.415V10.5H107.561V9.33333H106.707V10.5H105.854V12.8333H102.439V11.6667H101.585V10.5H100.732V9.33333H99.8781ZM100.732 9.33333H101.585V8.16667H100.732V9.33333ZM106.707 9.33333V8.16667H105.854V9.33333H106.707ZM107.561 9.33333H108.415V8.16667H107.561V9.33333ZM114.39 8.16667V9.33333H115.244V8.16667H114.39ZM115.244 9.33333V10.5H114.39V16.3333H122.073V12.8333H117.805V11.6667H116.951V10.5H116.098V9.33333H115.244ZM116.098 9.33333H116.951V8.16667H116.098V9.33333ZM131.463 8.16667V9.33333H132.317V8.16667H131.463ZM132.317 9.33333V10.5H131.463V16.3333H134.024V10.5H133.171V9.33333H132.317ZM133.171 9.33333H134.024V8.16667H133.171V9.33333Z" fill="#CCFF00"/>
</g>
<defs>
<clipPath id="clip0_19_10">
<rect width="140" height="21" fill="white"/>
</clipPath>
</defs>
</svg>
